# xmcd
#
# Track frame offsets:
#	150
#	22022
#	49526
#	78217
#	102282
#	123409
#	143918
#	166356
#	199188
#	227309
#	249011
#	273969
#
# Disc length: 4061 seconds
#
# Revision: 1
# Processed by: cddbd v1.5.2PL0 Copyright (c) Steve Scherf et al.
# Submitted via: audiograbber 1.82.02
#
DISCID=900fdb0c
DTITLE=Dem Franchize Boyz - On Top Of Our Game-Screwed and Chopped
DYEAR=1900
DGENRE=
TTITLE0=My Music Feat. Bun B
TTITLE1=I Think They Like Me (So So Def Remix)
TTITLE2=Ridin' Rims
TTITLE3=Don't Play With Me
TTITLE4=You Know What It Is
TTITLE5=Suckas Come And Try Me
TTITLE6=Lean Wit It, Rock Wit It
TTITLE7=Freaky As She Wanna Be
TTITLE8=Bricks 4 The High
TTITLE9=They Don't Like That
TTITLE10=Stop Callin' Me
TTITLE11=Give Props
EXTD=
EXTT0=
EXTT1=
EXTT2=
EXTT3=
EXTT4=
EXTT5=
EXTT6=
EXTT7=
EXTT8=
EXTT9=
EXTT10=
EXTT11=
PLAYORDER=
